<?xml version="1.0" standalone="no"?><!DOCTYPE svg PUBLIC "-//W3C//DTD SVG 1.1//EN" "http://www.w3.org/Graphics/SVG/1.1/DTD/svg11.dtd">
<svg
        t="1714395170929" class="icon" viewBox="0 0 1024 1024" version="1.1" xmlns="http://www.w3.org/2000/svg"
        p-id="1481" width="200" height="200"><path d="M608 512v160h-192v-160h160z" fill="#E0EBFE" p-id="1482"></path><path d="M608 480v-22.4c0-61.184-40.384-105.6-96-105.6s-96 44.416-96 105.6v22.4a32 32 0 0 0-32 32v160a32 32 0 0 0 32 32h192a32 32 0 0 0 32-32v-160a32 32 0 0 0-32-32z m-128-22.4c0-19.2 8.384-41.6 32-41.6s32 22.4 32 41.6v22.4h-64v-22.4z m96 182.4h-128v-96h128v96z" fill="#5465CF" p-id="1483"></path><path d="M914.752 529.056c0.32-5.76 0.448-11.456 0.448-17.056 0-194.08-160.512-352-357.76-352-144.736 0-274.88 86.112-330.24 216.32-128.96 18.048-227.2 121.024-227.2 242.24C0 753.92 120 864 267.52 864h579.52c97.6 0 176.96-78.08 176.96-174.08 0-71.488-43.744-134.24-109.248-160.864zM847.04 800H267.52C155.296 800 64 718.592 64 618.56c0-94.08 82.624-173.344 188.096-180.544 12.704-0.864 23.68-9.184 27.968-21.12C321.28 301.472 432.736 224 557.44 224c161.984 0 293.76 129.184 293.76 288 0 11.2-0.768 22.912-2.336 35.84a32 32 0 0 0 24.416 35.008c51.072 12.032 86.72 56.064 86.72 107.072 0 60.704-50.688 110.08-112.96 110.08z" fill="#5465CF" p-id="1484"></path></svg>